<svg width="20" height="17" viewBox="0 0 20 17" fill="none" xmlns="http://www.w3.org/2000/svg">
<g clip-path="url(#clip0_688_1422)">
<path d="M18.7219 15.5538C18.7641 15.5542 18.806 15.546 18.8449 15.5298C18.8838 15.5135 18.919 15.4895 18.9481 15.4592C18.9773 15.4289 18.9998 15.393 19.0144 15.3538C19.0289 15.3145 19.0352 15.2727 19.0328 15.231C19.0328 15.002 18.8932 14.8926 18.607 14.8926H18.1445V16.0914H18.3185V15.5688H18.5322L18.5371 15.5752L18.8688 16.0914H19.0549L18.698 15.5571L18.7219 15.5538ZM18.5207 15.4337H18.319V15.0284H18.5746C18.7067 15.0284 18.8573 15.0498 18.8573 15.221C18.8573 15.4179 18.7049 15.4337 18.5197 15.4337" fill="#0A66C2"/>
<path d="M14.1843 14.0515H11.7176V10.2267C11.7176 9.3146 11.7012 8.14049 10.4347 8.14049C9.15 8.14049 8.95343 9.13423 8.95343 10.1603V14.0512H6.48677V6.18584H8.85476V7.26074H8.88791C9.12489 6.85954 9.46733 6.5295 9.87876 6.30576C10.2902 6.08202 10.7552 5.97296 11.2243 5.9902C13.7243 5.9902 14.1853 7.61844 14.1853 9.73667L14.1843 14.0515ZM3.70358 5.1107C3.42047 5.11075 3.1437 5.02768 2.90827 4.87198C2.67284 4.71628 2.48935 4.49496 2.38096 4.23599C2.27257 3.97703 2.24417 3.69206 2.29935 3.41711C2.35453 3.14217 2.49082 2.8896 2.69097 2.69135C2.89113 2.4931 3.14616 2.35806 3.42382 2.30332C3.70148 2.24859 3.98929 2.2766 4.25087 2.38383C4.51245 2.49106 4.73604 2.67268 4.89336 2.90573C5.05069 3.13878 5.1347 3.4128 5.13475 3.69312C5.13478 3.87924 5.09779 4.06355 5.02588 4.23552C4.95398 4.4075 4.84858 4.56376 4.71568 4.69539C4.58279 4.82703 4.42499 4.93146 4.25134 5.00271C4.07768 5.07397 3.89156 5.11067 3.70358 5.1107ZM4.9369 14.0515H2.46768V6.18584H4.9369V14.0515ZM15.414 0.00795895H1.2282C0.906223 0.00436122 0.595959 0.12748 0.365614 0.350262C0.135268 0.573043 0.00368542 0.87726 -0.000244141 1.19606V15.3004C0.00355093 15.6194 0.135057 15.9238 0.365394 16.1468C0.595731 16.3698 0.906063 16.4932 1.2282 16.4898H15.414C15.7368 16.4938 16.048 16.3708 16.2792 16.1478C16.5105 15.9248 16.6428 15.62 16.6473 15.3004V1.19505C16.6427 0.87561 16.5102 0.571047 16.279 0.348271C16.0477 0.125495 15.7366 0.00272793 15.414 0.00694089" fill="#0A66C2"/>
<path d="M18.5417 14.3584C18.2416 14.3613 17.9549 14.4817 17.7442 14.6933C17.5335 14.9049 17.4161 15.1906 17.4175 15.4877C17.4189 15.7849 17.5392 16.0694 17.7519 16.279C17.9646 16.4886 18.2525 16.6063 18.5527 16.6063C18.8528 16.6063 19.1407 16.4886 19.3534 16.279C19.5661 16.0694 19.6864 15.7849 19.6878 15.4877C19.6893 15.1906 19.5718 14.9049 19.3611 14.6933C19.1504 14.4817 18.8637 14.3613 18.5636 14.3584H18.5417ZM18.5417 16.4776C18.3449 16.4809 18.1515 16.4263 17.986 16.3207C17.8205 16.2151 17.6904 16.0633 17.612 15.8845C17.5337 15.7056 17.5106 15.5078 17.5458 15.316C17.581 15.1242 17.6728 14.9471 17.8097 14.807C17.9466 14.6669 18.1223 14.5701 18.3148 14.5289C18.5072 14.4877 18.7076 14.5039 18.8907 14.5755C19.0739 14.6471 19.2314 14.7708 19.3435 14.9311C19.4556 15.0913 19.5171 15.2809 19.5204 15.4758C19.5204 15.4814 19.5204 15.4867 19.5204 15.4923C19.5259 15.748 19.4287 15.9954 19.25 16.1801C19.0713 16.3647 18.8259 16.4716 18.5677 16.4771H18.542" fill="#0A66C2"/>
</g>
<defs>
<clipPath id="clip0_688_1422">
<rect width="19.688" height="16.6197" fill="white" transform="translate(0 0.00683594)"/>
</clipPath>
</defs>
</svg>
