<svg width="16" height="17" viewBox="0 0 16 17" fill="none" xmlns="http://www.w3.org/2000/svg">
<g clip-path="url(#clip0_688_1452)">
<path d="M6.29701 6.55137V5.90271C6.07364 5.87227 5.84691 5.85352 5.61559 5.85352C2.82757 5.85352 0.559082 8.11425 0.559082 10.8932C0.559082 12.5982 1.41369 14.1069 2.71797 15.019C1.87633 14.1186 1.36014 12.9125 1.36014 11.5877C1.36014 8.84879 3.56421 6.61515 6.29743 6.55137H6.29701Z" fill="#25F4EE"/>
<path d="M6.41636 13.8889C7.66041 13.8889 8.67522 12.9026 8.72124 11.674L8.72584 0.701773H10.7371C10.6952 0.476242 10.6722 0.244457 10.6722 0.00683594H7.9252L7.9206 10.9791C7.87458 12.2076 6.85977 13.194 5.61572 13.194C5.2292 13.194 4.86486 13.0977 4.54443 12.9297C4.964 13.5095 5.64584 13.8889 6.41636 13.8889Z" fill="#25F4EE"/>
<path d="M14.4943 4.42609V3.8162C13.7272 3.8162 13.0123 3.589 12.4128 3.19922C12.9466 3.80995 13.6715 4.25059 14.4943 4.42609Z" fill="#25F4EE"/>
<path d="M12.4133 3.19869C11.8285 2.5296 11.4734 1.65624 11.4734 0.701172H10.7375C10.9312 1.7442 11.5524 2.63924 12.4133 3.19869Z" fill="#FE2C55"/>
<path d="M5.61563 8.59139C4.3423 8.59139 3.30615 9.624 3.30615 10.893C3.30615 11.7768 3.80938 12.5447 4.54434 12.9299C4.27035 12.5513 4.10721 12.0886 4.10721 11.5875C4.10721 10.3185 5.14336 9.28591 6.41669 9.28591C6.65429 9.28591 6.88227 9.3251 7.09811 9.39222V6.59704C6.87474 6.56661 6.64801 6.54785 6.41669 6.54785C6.37653 6.54785 6.33721 6.54994 6.29747 6.55077V8.69728C6.08162 8.63016 5.85365 8.59098 5.61605 8.59098L5.61563 8.59139Z" fill="#FE2C55"/>
<path d="M14.4944 4.42578V6.55353C13.0701 6.55353 11.7499 6.09955 10.6723 5.32874V10.8928C10.6723 13.6717 8.40383 15.9321 5.61581 15.9321C4.53825 15.9321 3.53933 15.5936 2.71777 15.0187C3.6414 16.0071 4.95739 16.6266 6.41645 16.6266C9.20489 16.6266 11.473 14.3658 11.473 11.5873V6.02368C12.5505 6.79449 13.8707 7.24847 15.295 7.24847V4.51041C15.0202 4.51041 14.7525 4.48081 14.4944 4.42578Z" fill="#FE2C55"/>
<path d="M10.672 10.8926V5.32853C11.7496 6.09934 13.0697 6.55332 14.4941 6.55332V4.42557C13.6713 4.25006 12.9463 3.80984 12.4126 3.19869C11.5517 2.63924 10.9305 1.74462 10.7368 0.701172H8.7256L8.721 11.6734C8.67499 12.902 7.66017 13.8883 6.41613 13.8883C5.6456 13.8883 4.96376 13.5089 4.5442 12.9291C3.80923 12.5435 3.30601 11.7756 3.30601 10.8922C3.30601 9.62322 4.34215 8.59061 5.61548 8.59061C5.85308 8.59061 6.08106 8.62979 6.29691 8.69691V6.5504C3.56368 6.61418 1.35962 8.84782 1.35962 11.5867C1.35962 12.9116 1.87581 14.1176 2.71745 15.018C3.53858 15.5925 4.53792 15.9314 5.61548 15.9314C8.40351 15.9314 10.672 13.6707 10.672 10.8922V10.8926Z" fill="white"/>
</g>
<defs>
<clipPath id="clip0_688_1452">
<rect width="14.7362" height="16.6197" fill="white" transform="translate(0.559326 0.00683594)"/>
</clipPath>
</defs>
</svg>
