<svg xmlns="http://www.w3.org/2000/svg" width="169" height="140" viewBox="0 0 169 140" fill="none">
  <g clip-path="url(#clip0_230_1891)">
    <path d="M33 49C18.6813 39.2108 12.345 30.6225 13.7515 27.8898C15.1579 25.1571 56.1204 36.9069 102.03 60.5358C147.94 84.1647 182.581 107.525 179.627 113.263C176.673 119.002 167.061 115.104 150.5 109" stroke="#E9AE25" stroke-width="2.05919" stroke-miterlimit="10"/>
    <path d="M7.15584 42.4694C7.38233 42.0293 8.05142 41.657 9.4736 41.5677C10.852 41.4811 12.7565 41.6741 15.1473 42.1445C19.921 43.0837 26.5156 45.1042 34.4696 48.0421C50.3711 53.9154 71.6348 63.4286 94.4876 75.1905C117.34 86.9525 137.44 98.7281 151.46 108.255C158.474 113.021 163.951 117.213 167.489 120.552C169.261 122.225 170.525 123.662 171.256 124.834C172.01 126.044 172.096 126.805 171.869 127.245C171.643 127.685 170.973 128.057 169.551 128.146C168.173 128.233 166.268 128.04 163.878 127.569C159.104 126.63 152.509 124.61 144.555 121.672C128.654 115.799 107.39 106.285 84.5373 94.5235C61.6844 82.7615 41.5852 70.9859 27.5643 61.4586C20.551 56.6931 15.0743 52.5006 11.5357 49.1616C9.76351 47.4894 8.49966 46.0517 7.76901 44.8796C7.01517 43.6704 6.92935 42.9094 7.15584 42.4694Z" fill="#FFCC33" stroke="white"/>
    <path d="M42 34.5001C27.5407 24.9842 19.2504 17.8439 20.6569 15.1111C22.0633 12.3784 63.0258 24.1283 108.935 47.7572C154.845 71.3861 189.345 95.0192 186.532 100.485C183.72 105.95 174.42 99.3774 158 93.0001" stroke="#E9AE25" stroke-width="2.05919" stroke-miterlimit="10"/>
  </g>
  <defs>
    <clipPath id="clip0_230_1891">
      <rect width="190.552" height="58.395" fill="white" transform="translate(169.428 139.124) rotate(-152.766)"/>
    </clipPath>
  </defs>
</svg>