<svg width="176" height="173" viewBox="0 0 176 173" fill="none" xmlns="http://www.w3.org/2000/svg">
<g clip-path="url(#clip0_945_1822)">
<mask id="mask0_945_1822" style="mask-type:luminance" maskUnits="userSpaceOnUse" x="0" y="0" width="176" height="173">
<path d="M176 0H0V172.382H176V0Z" fill="white"/>
</mask>
<g mask="url(#mask0_945_1822)">
<path d="M173.82 86.202C173.82 39.7772 135.405 2.17969 87.9999 2.17969C40.5943 2.17969 2.17944 39.7772 2.17944 86.202C2.17944 132.627 40.5943 170.224 87.9999 170.224C135.405 170.224 173.82 132.572 173.82 86.202Z" fill="#FFCC33"/>
<path d="M87.9999 170.224C135.397 170.224 173.82 132.606 173.82 86.202C173.82 39.7977 135.397 2.17969 87.9999 2.17969C40.6026 2.17969 2.17944 39.7977 2.17944 86.202C2.17944 132.606 40.6026 170.224 87.9999 170.224Z" stroke="#1F1F1F" stroke-width="4.35913" stroke-linecap="round" stroke-linejoin="round"/>
<path d="M161.397 86.202C161.397 46.5339 128.54 14.3308 87.9999 14.3308C47.46 14.3308 14.603 46.5339 14.603 86.202C14.603 125.87 47.46 158.019 87.9999 158.019C128.54 158.019 161.397 125.87 161.397 86.202Z" fill="#E0410E"/>
<path d="M87.9999 158.019C128.536 158.019 161.397 125.865 161.397 86.202C161.397 46.5387 128.536 14.3853 87.9999 14.3853C47.4639 14.3853 14.603 46.5387 14.603 86.202C14.603 125.865 47.4639 158.019 87.9999 158.019Z" stroke="#1F1F1F" stroke-width="4.35913" stroke-linecap="round" stroke-linejoin="round"/>
<path d="M88 12.7507C46.6428 12.7507 13.0229 45.6622 13.0229 86.2021C13.0229 126.742 46.6428 159.654 88 159.654C129.357 159.654 163.032 126.688 163.032 86.2021C163.032 45.7167 129.357 12.7507 88 12.7507ZM150.063 120.857H131.973C135.733 110.886 137.858 99.4975 138.021 87.3464H159.49C159.301 99.1443 156.053 110.691 150.063 120.857ZM16.5103 87.3464H38.0335C38.0827 98.7789 40.1106 110.117 44.0273 120.857H25.9369C19.9725 110.68 16.7263 99.1403 16.5103 87.3464ZM25.9369 51.4925H44.0273C40.1201 62.2358 38.0925 73.5718 38.0335 85.0034H16.5103C16.7336 73.2105 19.9793 61.6723 25.9369 51.4925ZM113.61 85.0034C113.576 73.7677 112.574 62.5559 110.613 51.4925H129.521C133.493 62.2234 135.576 73.5613 135.678 85.0034H113.61ZM91.0514 156.057H89.1988V123.2H107.671C104.02 140.637 97.9716 153.169 91.0514 156.057ZM84.9486 156.057C78.0285 153.169 71.9802 140.637 68.3295 123.2H86.8558V156.112H84.9486M84.9486 16.347H86.8558V49.1495H68.3295C71.9802 31.7674 78.0285 19.2349 84.9486 16.2925M91.0514 16.2925C97.9716 19.2349 104.02 31.7674 107.671 49.1495H89.1988V16.2925H91.0514ZM86.8558 51.4925V85.0034H64.7877C64.808 73.7622 65.8476 62.546 67.8935 51.4925H86.8558ZM86.8558 87.3464V120.857H67.8935C65.8425 109.804 64.8029 98.5878 64.7877 87.3464H86.8558ZM89.1988 120.857V87.3464H111.267C111.252 98.5878 110.212 109.804 108.161 120.857H89.1988ZM89.1988 85.0034V51.4925H108.161C110.207 62.546 111.247 73.7622 111.267 85.0034H89.1988ZM110.177 49.1495C107.017 33.7291 101.949 22.0684 95.8465 16.674H96.1734C109.85 20.2157 121.511 32.3123 128.594 49.1495H110.177ZM80.2081 16.674C74.0508 22.0684 68.9833 33.7291 65.8774 49.1495H47.4601C54.4892 32.3123 66.2044 20.2157 79.8812 16.7284H80.2081M65.387 51.4925C63.4191 62.5541 62.4344 73.7681 62.4446 85.0034H40.3765C40.4251 73.5563 42.51 62.2092 46.5338 51.4925H65.387ZM40.3765 87.3464H62.4446C62.4293 98.5819 63.414 109.796 65.387 120.857H46.5338C42.4999 110.143 40.4146 98.7944 40.3765 87.3464ZM65.8774 123.2C68.9833 138.621 74.0508 150.281 80.2081 155.73H79.8812C66.2044 152.243 54.4892 140.092 47.4601 123.255L65.8774 123.2ZM95.8465 155.73C101.949 150.281 107.017 138.621 110.177 123.2H128.594C121.511 140.037 109.85 152.189 96.1734 155.676H95.8465M110.613 120.803C112.579 109.74 113.581 98.5278 113.61 87.2919H135.678C135.586 98.7349 133.503 110.075 129.521 120.803H110.613ZM138.021 85.0034C137.945 73.5686 135.899 62.2325 131.973 51.4925H150.063C156.046 61.6616 159.293 73.2066 159.49 85.0034H138.021ZM148.646 49.1495H131.046C125.543 35.5817 117.043 24.7928 106.908 18.7445C124.109 23.354 138.985 34.1901 148.646 49.1495ZM69.1468 18.7445C58.9573 24.7928 50.5115 35.5817 44.9536 49.1495H27.3536C37.0249 34.1756 51.923 23.3371 69.1468 18.7445ZM27.3536 123.2H44.9536C50.5115 136.823 58.9573 147.611 69.1468 153.66C51.9074 149.068 37.0033 138.206 27.3536 123.2ZM106.908 153.66C117.043 147.611 125.543 136.823 131.046 123.2H148.646C139.006 138.191 124.125 149.051 106.908 153.66Z" fill="#1F1F1F"/>
<path d="M88 12.7507C46.6428 12.7507 13.0229 45.6622 13.0229 86.2021C13.0229 126.742 46.6428 159.654 88 159.654C129.357 159.654 163.032 126.688 163.032 86.2021C163.032 45.7167 129.357 12.7507 88 12.7507ZM150.063 120.857H131.973C135.733 110.886 137.858 99.4975 138.021 87.3464H159.49C159.301 99.1443 156.053 110.691 150.063 120.857ZM16.5103 87.3464H38.0335C38.0827 98.7789 40.1106 110.117 44.0273 120.857H25.9369C19.9725 110.68 16.7263 99.1403 16.5103 87.3464ZM25.9369 51.4925H44.0273C40.1201 62.2358 38.0925 73.5718 38.0335 85.0034H16.5103C16.7336 73.2105 19.9793 61.6723 25.9369 51.4925ZM113.61 85.0034C113.576 73.7677 112.574 62.5559 110.613 51.4925H129.521C133.493 62.2234 135.576 73.5613 135.678 85.0034H113.61ZM91.0514 156.057H89.1988V123.2H107.671C104.02 140.637 97.9716 153.169 91.0514 156.057ZM84.9486 156.057C78.0285 153.169 71.9802 140.637 68.3295 123.2H86.8558V156.112L84.9486 156.057ZM84.9486 16.2925H86.8558V49.1495H68.3295C71.9802 31.7674 78.0285 19.2349 84.9486 16.2925ZM91.0514 16.2925C97.9716 19.2349 104.02 31.7674 107.671 49.1495H89.1988V16.2925H91.0514ZM86.8558 51.4925V85.0034H64.7877C64.808 73.7622 65.8476 62.546 67.8935 51.4925H86.8558ZM86.8558 87.3464V120.857H67.8935C65.8425 109.804 64.8029 98.5878 64.7877 87.3464H86.8558ZM89.1988 120.857V87.3464H111.267C111.252 98.5878 110.212 109.804 108.161 120.857H89.1988ZM89.1988 85.0034V51.4925H108.161C110.207 62.546 111.247 73.7622 111.267 85.0034H89.1988ZM110.177 49.1495C107.017 33.7291 101.949 22.0684 95.8465 16.674H96.1734C109.85 20.2157 121.511 32.3123 128.594 49.1495H110.177ZM80.2081 16.674C74.0508 22.0684 68.9833 33.7291 65.8774 49.1495H47.4601C54.4892 32.3123 66.2044 20.2157 79.8812 16.7284L80.2081 16.674ZM65.387 51.4925C63.4191 62.5541 62.4344 73.7681 62.4446 85.0034H40.3765C40.4251 73.5563 42.51 62.2092 46.5338 51.4925H65.387ZM40.3765 87.3464H62.4446C62.4293 98.5819 63.414 109.796 65.387 120.857H46.5338C42.4999 110.143 40.4146 98.7944 40.3765 87.3464ZM65.8774 123.2C68.9833 138.621 74.0508 150.281 80.2081 155.73H79.8812C66.2044 152.243 54.4892 140.092 47.4601 123.255L65.8774 123.2ZM95.8465 155.73C101.949 150.281 107.017 138.621 110.177 123.2H128.594C121.511 140.037 109.85 152.189 96.1734 155.676L95.8465 155.73ZM110.613 120.857C112.579 109.795 113.581 98.5823 113.61 87.3464H135.678C135.586 98.7894 133.503 110.129 129.521 120.857H110.613ZM138.021 85.0034C137.945 73.5686 135.899 62.2325 131.973 51.4925H150.063C156.046 61.6616 159.293 73.2066 159.49 85.0034H138.021ZM148.646 49.1495H131.046C125.543 35.5817 117.043 24.7928 106.908 18.7445C124.109 23.354 138.985 34.1901 148.646 49.1495ZM69.1468 18.7445C58.9573 24.7928 50.5115 35.5817 44.9536 49.1495H27.3536C37.0249 34.1756 51.923 23.3371 69.1468 18.7445ZM27.3536 123.2H44.9536C50.5115 136.823 58.9573 147.611 69.1468 153.66C51.9074 149.068 37.0033 138.206 27.3536 123.2ZM106.908 153.66C117.043 147.611 125.543 136.823 131.046 123.2H148.646C139.006 138.191 124.125 149.051 106.908 153.66Z" stroke="#1F1F1F" stroke-width="0.544892" stroke-miterlimit="10"/>
</g>
</g>
<defs>
<clipPath id="clip0_945_1822">
<rect width="176" height="172.404" fill="white"/>
</clipPath>
</defs>
</svg>
