<svg width="184" height="185" viewBox="0 0 184 185" fill="none" xmlns="http://www.w3.org/2000/svg">
<g clip-path="url(#clip0_945_1833)">
<path d="M178.253 112.924C189.356 65.2112 159.678 17.5317 111.966 6.42858C64.253 -4.6745 16.5734 25.0034 5.47036 72.716C-5.63272 120.429 24.0452 168.108 71.7578 179.211C119.47 190.314 167.15 160.636 178.253 112.924Z" stroke="#E9AE25" stroke-width="2.33054" stroke-miterlimit="10"/>
<path d="M93.8028 183.032C127.23 183.032 154.327 143.32 154.327 94.3328C154.327 45.3453 127.23 5.63306 93.8028 5.63306C60.3761 5.63306 33.2783 45.3453 33.2783 94.3328C33.2783 143.32 60.3761 183.032 93.8028 183.032Z" stroke="#E9AE25" stroke-width="2.33054" stroke-miterlimit="10"/>
<path d="M93.803 183.032C107.251 183.032 118.152 143.32 118.152 94.3328C118.152 45.3453 107.251 5.63306 93.803 5.63306C80.3555 5.63306 69.4541 45.3453 69.4541 94.3328C69.4541 143.32 80.3555 183.032 93.803 183.032Z" stroke="#E9AE25" stroke-width="2.33054" stroke-miterlimit="10"/>
<path d="M169.284 47.3743H18.321" stroke="#E9AE25" stroke-width="2.33054" stroke-miterlimit="10"/>
<path d="M182.503 94.3328H4.75562" stroke="#E9AE25" stroke-width="2.33054" stroke-miterlimit="10"/>
<path d="M169.284 140.944H18.321" stroke="#E9AE25" stroke-width="2.33054" stroke-miterlimit="10"/>
</g>
<defs>
<clipPath id="clip0_945_1833">
<rect width="184" height="184.53" fill="white"/>
</clipPath>
</defs>
</svg>
