<svg width="57" height="76" viewBox="0 0 57 76" fill="none" xmlns="http://www.w3.org/2000/svg">
<g clip-path="url(#clip0_688_1363)">
<path d="M55.6978 23.11L27.2006 59.871L1.29395 21.2051C1.29395 21.2051 16.5747 10.3454 28.5688 10.6549C40.7665 10.9697 55.6978 23.11 55.6978 23.11Z" stroke="white" stroke-width="0.578406" stroke-linecap="round"/>
<path d="M27.1984 59.8716L1.39331 6.74531L7.32098 6.63574L27.1984 59.8716Z" fill="#FBBA22"/>
<path d="M27.1987 59.8713L7.32129 6.63548L11.4441 2.79883L27.1987 59.8713Z" fill="#E8AF26"/>
<path d="M27.1996 59.8713L11.4451 2.79883L16.9623 3.99849L27.1996 59.8713Z" fill="#F35208"/>
<path d="M27.1968 59.8714L16.9609 3.99853L22.1096 0.866211L27.1968 59.8714Z" fill="#DF410D"/>
<path d="M27.1985 59.8714L22.1113 0.866211L27.9395 3.21714L27.1985 59.8714Z" fill="#F5056C"/>
<path d="M27.2002 59.8708L27.9387 3.07221L33.248 0.804688L27.2002 59.8708Z" fill="#DB0E65"/>
<path d="M27.2002 59.8708L33.248 0.804688L38.2276 4.18368L27.2002 59.8708Z" fill="#7B49E8"/>
<path d="M27.2002 59.8714L38.2276 4.18425L43.5584 3.07324L27.2002 59.8714Z" fill="#673CCB"/>
<path d="M27.2002 59.8714L43.5584 3.07324L47.684 7.19116L27.2002 59.8714Z" fill="#3C8CFC"/>
<path d="M27.2002 59.8716L47.684 7.19136L53.6116 7.08203L27.2002 59.8716Z" fill="#337FE8"/>
<path d="M17.3541 63.7568L21.7582 66.3475L16.8359 68.9382C16.8359 68.9382 20.4629 66.5364 20.4629 66.3475C20.4629 66.1586 17.3541 63.7568 17.3541 63.7568Z" fill="#BA2F41"/>
<path d="M37.0428 63.7568L32.6387 66.3475L37.5609 68.9382C37.5609 68.9382 33.934 66.5364 33.934 66.3475C33.934 66.1586 37.0428 63.7568 37.0428 63.7568Z" fill="#BA2F41"/>
<path d="M29.7897 74.8319L27.1991 70.4277L24.6084 75.35C24.6084 75.35 27.0102 71.7231 27.1991 71.7231C27.3879 71.7231 29.7897 74.8319 29.7897 74.8319Z" fill="#BA2F41"/>
<path d="M27.2112 68.9635C28.6487 68.9635 29.8141 67.7981 29.8141 66.3606C29.8141 64.9231 28.6487 63.7578 27.2112 63.7578C25.7737 63.7578 24.6084 64.9231 24.6084 66.3606C24.6084 67.7981 25.7737 68.9635 27.2112 68.9635Z" fill="#BFD3EB"/>
</g>
<defs>
<clipPath id="clip0_688_1363">
<rect width="56.9946" height="75.1292" fill="white" transform="translate(0 0.286133)"/>
</clipPath>
</defs>
</svg>
