<svg width="375" height="375" viewBox="0 0 375 375" fill="none" xmlns="http://www.w3.org/2000/svg">
<g clip-path="url(#clip0_945_1922)">
<mask id="path-1-inside-1_945_1922" fill="white">
<path d="M290.818 105.772L259.861 113.808C258.938 114.017 257.978 113.997 257.064 113.752C256.15 113.506 255.309 113.042 254.615 112.398C253.92 111.755 253.393 110.952 253.078 110.06C252.764 109.167 252.671 108.211 252.809 107.274L257.956 75.7139C258.103 74.5884 257.919 73.4445 257.425 72.4224C256.931 71.4003 256.15 70.5446 255.177 69.9603C254.203 69.376 253.081 69.0885 251.947 69.1332C250.812 69.1778 249.716 69.5526 248.792 70.2116L223.787 90.025C223.013 90.5632 222.125 90.9154 221.192 91.0538C220.26 91.1923 219.308 91.1132 218.41 90.8231C217.513 90.5329 216.695 90.0395 216.02 89.3812C215.345 88.7228 214.831 87.9174 214.519 87.0277L206.483 56.0711C206.253 54.9166 205.661 53.8655 204.793 53.0704C203.924 52.2753 202.826 51.7775 201.655 51.6494C200.485 51.5212 199.304 51.7694 198.285 52.3578C197.265 52.9462 196.459 53.8442 195.985 54.9215L181.006 83.1558C180.601 84.0255 179.977 84.7751 179.195 85.3311C178.414 85.8871 177.501 86.2303 176.546 86.3273C175.592 86.4243 174.628 86.2717 173.751 85.8843C172.873 85.497 172.111 84.8883 171.539 84.1178L151.322 59.0288C150.623 58.0917 149.645 57.4001 148.528 57.053C147.411 56.706 146.213 56.7213 145.106 57.0968C143.999 57.4723 143.038 58.1888 142.363 59.1434C141.688 60.0981 141.332 61.242 141.347 62.4112L139.108 94.1607C139.033 95.1075 138.727 96.0215 138.217 96.8231C137.707 97.6247 137.01 98.2897 136.184 98.7601C135.359 99.2305 134.431 99.492 133.482 99.5221C132.533 99.5521 131.59 99.3497 130.737 98.9324L102.418 84.3575C101.379 83.8019 100.195 83.5745 99.0242 83.7051C97.853 83.8357 96.749 84.3181 95.8576 85.0889C94.9661 85.8596 94.3291 86.8825 94.0307 88.0226C93.7324 89.1626 93.7866 90.3663 94.1862 91.4749L105.384 121.41C105.72 122.308 105.83 123.273 105.703 124.223C105.577 125.172 105.218 126.076 104.659 126.854C104.101 127.632 103.359 128.26 102.499 128.684C101.64 129.107 100.69 129.311 99.7323 129.28L67.8984 127.445C66.7236 127.27 65.5237 127.478 64.4761 128.037C63.4285 128.597 62.5886 129.478 62.0802 130.552C61.5718 131.625 61.422 132.834 61.6528 133.999C61.8836 135.164 62.4828 136.224 63.3621 137.022L85.7005 160.029C86.3554 160.728 86.828 161.577 87.0765 162.503C87.325 163.428 87.3416 164.4 87.125 165.333C86.9085 166.266 86.4654 167.131 85.8348 167.852C85.2042 168.573 84.4058 169.128 83.5099 169.467L53.5744 180.665C52.5174 181.115 51.6169 181.867 50.986 182.827C50.3551 183.787 50.022 184.912 50.0285 186.061C50.035 187.21 50.3807 188.331 51.0224 189.284C51.6641 190.237 52.573 190.979 53.635 191.417L83.3532 203.338C84.2373 203.666 85.0229 204.216 85.6352 204.933C86.2474 205.651 86.6662 206.513 86.8519 207.438C87.0375 208.363 86.9838 209.32 86.6959 210.218C86.408 211.116 85.8954 211.926 85.2068 212.571L62.3591 235.153C61.6046 235.987 61.1073 237.02 60.9269 238.13C60.7466 239.24 60.8909 240.378 61.3426 241.407C61.7943 242.437 62.5341 243.314 63.4727 243.932C64.4113 244.551 65.5088 244.885 66.633 244.894L98.656 243.821C99.6051 243.782 100.549 243.975 101.407 244.384C102.264 244.793 103.008 245.406 103.575 246.168C104.141 246.93 104.513 247.82 104.658 248.758C104.802 249.697 104.715 250.657 104.404 251.555L92.6428 281.517C92.3269 282.59 92.3263 283.731 92.641 284.804C92.9558 285.877 93.5724 286.837 94.4178 287.57C95.2631 288.302 96.3012 288.776 97.4083 288.934C98.5155 289.093 99.6448 288.929 100.662 288.464L129.332 274.263C130.201 273.875 131.152 273.706 132.102 273.771C133.052 273.836 133.971 274.132 134.78 274.634C135.589 275.136 136.262 275.829 136.741 276.651C137.221 277.473 137.491 278.401 137.53 279.352L139.091 311.056C139.029 312.246 139.353 313.424 140.013 314.415C140.674 315.406 141.636 316.158 142.758 316.559C143.88 316.96 145.101 316.988 146.24 316.64C147.379 316.292 148.376 315.586 149.082 314.626L169.604 290.082C170.213 289.332 170.999 288.746 171.891 288.375C172.783 288.005 173.753 287.861 174.714 287.959C175.675 288.056 176.597 288.39 177.396 288.932C178.196 289.474 178.849 290.206 179.295 291.062L193.496 319.732C194.039 320.762 194.877 321.606 195.903 322.155C196.929 322.705 198.096 322.935 199.253 322.815C200.411 322.695 201.506 322.232 202.398 321.485C203.29 320.737 203.938 319.74 204.259 318.621L213.036 287.822C213.278 286.912 213.748 286.078 214.402 285.4C215.056 284.722 215.872 284.222 216.773 283.948C217.674 283.673 218.63 283.632 219.551 283.83C220.471 284.028 221.327 284.457 222.035 285.077L246.908 305.036C247.755 305.841 248.835 306.357 249.993 306.511C251.151 306.665 252.328 306.449 253.356 305.893C254.384 305.338 255.209 304.472 255.715 303.419C256.221 302.366 256.38 301.18 256.171 300.03L251.457 268.296C251.318 267.343 251.417 266.369 251.746 265.463C252.075 264.557 252.623 263.747 253.342 263.105C254.061 262.463 254.928 262.009 255.865 261.784C256.803 261.559 257.781 261.57 258.713 261.816L289.596 270.191C290.721 270.583 291.942 270.603 293.079 270.246C294.216 269.889 295.207 269.176 295.906 268.211C296.605 267.247 296.974 266.082 296.959 264.891C296.943 263.7 296.545 262.546 295.821 261.599L278.936 234.682C278.424 233.87 278.121 232.944 278.053 231.987C277.985 231.029 278.155 230.07 278.547 229.194C278.94 228.318 279.542 227.552 280.301 226.965C281.06 226.377 281.953 225.986 282.899 225.827L314.474 220.869C315.633 220.76 316.727 220.289 317.603 219.522C318.479 218.756 319.091 217.733 319.352 216.599C319.613 215.465 319.511 214.277 319.058 213.205C318.606 212.132 317.828 211.229 316.834 210.624L290.243 192.832C289.44 192.306 288.78 191.589 288.321 190.746C287.861 189.903 287.618 188.96 287.611 188C287.604 187.04 287.834 186.094 288.281 185.244C288.727 184.395 289.377 183.669 290.172 183.131L317.014 165.598C317.911 164.929 318.596 164.017 318.988 162.969C319.38 161.922 319.463 160.784 319.226 159.691C318.989 158.598 318.443 157.596 317.652 156.805C316.862 156.014 315.86 155.467 314.767 155.229L283.291 149.679C282.352 149.559 281.459 149.2 280.698 148.637C279.937 148.074 279.333 147.325 278.943 146.462C278.554 145.598 278.393 144.65 278.475 143.706C278.557 142.763 278.879 141.856 279.411 141.073L297.044 114.238C297.56 113.268 297.791 112.173 297.711 111.078C297.632 109.982 297.244 108.932 296.594 108.047C295.943 107.162 295.056 106.479 294.034 106.077C293.012 105.674 291.897 105.569 290.818 105.772Z"/>
</mask>
<path d="M290.818 105.772L259.861 113.808C258.938 114.017 257.978 113.997 257.064 113.752C256.15 113.506 255.309 113.042 254.615 112.398C253.92 111.755 253.393 110.952 253.078 110.06C252.764 109.167 252.671 108.211 252.809 107.274L257.956 75.7139C258.103 74.5884 257.919 73.4445 257.425 72.4224C256.931 71.4003 256.15 70.5446 255.177 69.9603C254.203 69.376 253.081 69.0885 251.947 69.1332C250.812 69.1778 249.716 69.5526 248.792 70.2116L223.787 90.025C223.013 90.5632 222.125 90.9154 221.192 91.0538C220.26 91.1923 219.308 91.1132 218.41 90.8231C217.513 90.5329 216.695 90.0395 216.02 89.3812C215.345 88.7228 214.831 87.9174 214.519 87.0277L206.483 56.0711C206.253 54.9166 205.661 53.8655 204.793 53.0704C203.924 52.2753 202.826 51.7775 201.655 51.6494C200.485 51.5212 199.304 51.7694 198.285 52.3578C197.265 52.9462 196.459 53.8442 195.985 54.9215L181.006 83.1558C180.601 84.0255 179.977 84.7751 179.195 85.3311C178.414 85.8871 177.501 86.2303 176.546 86.3273C175.592 86.4243 174.628 86.2717 173.751 85.8843C172.873 85.497 172.111 84.8883 171.539 84.1178L151.322 59.0288C150.623 58.0917 149.645 57.4001 148.528 57.053C147.411 56.706 146.213 56.7213 145.106 57.0968C143.999 57.4723 143.038 58.1888 142.363 59.1434C141.688 60.0981 141.332 61.242 141.347 62.4112L139.108 94.1607C139.033 95.1075 138.727 96.0215 138.217 96.8231C137.707 97.6247 137.01 98.2897 136.184 98.7601C135.359 99.2305 134.431 99.492 133.482 99.5221C132.533 99.5521 131.59 99.3497 130.737 98.9324L102.418 84.3575C101.379 83.8019 100.195 83.5745 99.0242 83.7051C97.853 83.8357 96.749 84.3181 95.8576 85.0889C94.9661 85.8596 94.3291 86.8825 94.0307 88.0226C93.7324 89.1626 93.7866 90.3663 94.1862 91.4749L105.384 121.41C105.72 122.308 105.83 123.273 105.703 124.223C105.577 125.172 105.218 126.076 104.659 126.854C104.101 127.632 103.359 128.26 102.499 128.684C101.64 129.107 100.69 129.311 99.7323 129.28L67.8984 127.445C66.7236 127.27 65.5237 127.478 64.4761 128.037C63.4285 128.597 62.5886 129.478 62.0802 130.552C61.5718 131.625 61.422 132.834 61.6528 133.999C61.8836 135.164 62.4828 136.224 63.3621 137.022L85.7005 160.029C86.3554 160.728 86.828 161.577 87.0765 162.503C87.325 163.428 87.3416 164.4 87.125 165.333C86.9085 166.266 86.4654 167.131 85.8348 167.852C85.2042 168.573 84.4058 169.128 83.5099 169.467L53.5744 180.665C52.5174 181.115 51.6169 181.867 50.986 182.827C50.3551 183.787 50.022 184.912 50.0285 186.061C50.035 187.21 50.3807 188.331 51.0224 189.284C51.6641 190.237 52.573 190.979 53.635 191.417L83.3532 203.338C84.2373 203.666 85.0229 204.216 85.6352 204.933C86.2474 205.651 86.6662 206.513 86.8519 207.438C87.0375 208.363 86.9838 209.32 86.6959 210.218C86.408 211.116 85.8954 211.926 85.2068 212.571L62.3591 235.153C61.6046 235.987 61.1073 237.02 60.9269 238.13C60.7466 239.24 60.8909 240.378 61.3426 241.407C61.7943 242.437 62.5341 243.314 63.4727 243.932C64.4113 244.551 65.5088 244.885 66.633 244.894L98.656 243.821C99.6051 243.782 100.549 243.975 101.407 244.384C102.264 244.793 103.008 245.406 103.575 246.168C104.141 246.93 104.513 247.82 104.658 248.758C104.802 249.697 104.715 250.657 104.404 251.555L92.6428 281.517C92.3269 282.59 92.3263 283.731 92.641 284.804C92.9558 285.877 93.5724 286.837 94.4178 287.57C95.2631 288.302 96.3012 288.776 97.4083 288.934C98.5155 289.093 99.6448 288.929 100.662 288.464L129.332 274.263C130.201 273.875 131.152 273.706 132.102 273.771C133.052 273.836 133.971 274.132 134.78 274.634C135.589 275.136 136.262 275.829 136.741 276.651C137.221 277.473 137.491 278.401 137.53 279.352L139.091 311.056C139.029 312.246 139.353 313.424 140.013 314.415C140.674 315.406 141.636 316.158 142.758 316.559C143.88 316.96 145.101 316.988 146.24 316.64C147.379 316.292 148.376 315.586 149.082 314.626L169.604 290.082C170.213 289.332 170.999 288.746 171.891 288.375C172.783 288.005 173.753 287.861 174.714 287.959C175.675 288.056 176.597 288.39 177.396 288.932C178.196 289.474 178.849 290.206 179.295 291.062L193.496 319.732C194.039 320.762 194.877 321.606 195.903 322.155C196.929 322.705 198.096 322.935 199.253 322.815C200.411 322.695 201.506 322.232 202.398 321.485C203.29 320.737 203.938 319.74 204.259 318.621L213.036 287.822C213.278 286.912 213.748 286.078 214.402 285.4C215.056 284.722 215.872 284.222 216.773 283.948C217.674 283.673 218.63 283.632 219.551 283.83C220.471 284.028 221.327 284.457 222.035 285.077L246.908 305.036C247.755 305.841 248.835 306.357 249.993 306.511C251.151 306.665 252.328 306.449 253.356 305.893C254.384 305.338 255.209 304.472 255.715 303.419C256.221 302.366 256.38 301.18 256.171 300.03L251.457 268.296C251.318 267.343 251.417 266.369 251.746 265.463C252.075 264.557 252.623 263.747 253.342 263.105C254.061 262.463 254.928 262.009 255.865 261.784C256.803 261.559 257.781 261.57 258.713 261.816L289.596 270.191C290.721 270.583 291.942 270.603 293.079 270.246C294.216 269.889 295.207 269.176 295.906 268.211C296.605 267.247 296.974 266.082 296.959 264.891C296.943 263.7 296.545 262.546 295.821 261.599L278.936 234.682C278.424 233.87 278.121 232.944 278.053 231.987C277.985 231.029 278.155 230.07 278.547 229.194C278.94 228.318 279.542 227.552 280.301 226.965C281.06 226.377 281.953 225.986 282.899 225.827L314.474 220.869C315.633 220.76 316.727 220.289 317.603 219.522C318.479 218.756 319.091 217.733 319.352 216.599C319.613 215.465 319.511 214.277 319.058 213.205C318.606 212.132 317.828 211.229 316.834 210.624L290.243 192.832C289.44 192.306 288.78 191.589 288.321 190.746C287.861 189.903 287.618 188.96 287.611 188C287.604 187.04 287.834 186.094 288.281 185.244C288.727 184.395 289.377 183.669 290.172 183.131L317.014 165.598C317.911 164.929 318.596 164.017 318.988 162.969C319.38 161.922 319.463 160.784 319.226 159.691C318.989 158.598 318.443 157.596 317.652 156.805C316.862 156.014 315.86 155.467 314.767 155.229L283.291 149.679C282.352 149.559 281.459 149.2 280.698 148.637C279.937 148.074 279.333 147.325 278.943 146.462C278.554 145.598 278.393 144.65 278.475 143.706C278.557 142.763 278.879 141.856 279.411 141.073L297.044 114.238C297.56 113.268 297.791 112.173 297.711 111.078C297.632 109.982 297.244 108.932 296.594 108.047C295.943 107.162 295.056 106.479 294.034 106.077C293.012 105.674 291.897 105.569 290.818 105.772Z" fill="#5B57F4" stroke="black" stroke-width="9.18793" mask="url(#path-1-inside-1_945_1922)"/>
</g>
<defs>
<clipPath id="clip0_945_1922">
<rect width="269.976" height="271.064" fill="white" transform="translate(0 147.638) rotate(-33.1517)"/>
</clipPath>
</defs>
</svg>
