<svg width="343" height="141" viewBox="0 0 343 141" fill="none" xmlns="http://www.w3.org/2000/svg">
<g clip-path="url(#clip0_945_1943)">
<path d="M342.356 0.616699L1.29932 0.616699L1.29932 140.007L342.356 140.007V0.616699Z" stroke="#635D5D" stroke-width="0.895757" stroke-miterlimit="10"/>
<path d="M342.356 21.072V119.605C341.821 121.477 341.286 123.349 340.618 125.221C339.013 130.167 337.141 135.114 335.136 140.061L8.65255 140.061C6.51343 135.159 4.64168 130.212 3.03734 125.221C2.36886 123.349 1.8341 121.477 1.29932 119.605L1.29932 21.072C1.8341 19.2003 2.36886 17.3286 3.03734 15.4568C4.6294 10.4088 6.5041 5.45425 8.65255 0.616699L335.136 0.616699C337.141 5.42972 339.013 10.3764 340.618 15.4568C341.286 17.3286 341.821 19.2003 342.356 21.072Z" stroke="#635D5D" stroke-width="0.895757" stroke-miterlimit="10"/>
<path d="M340.35 70.2718C340.392 87.9731 337.64 105.57 332.195 122.413C330.318 128.441 328.04 134.337 325.376 140.061L18.2784 140.061C15.6937 134.356 13.4209 128.474 11.46 122.413C0.585916 88.5483 0.585916 52.1291 11.46 18.2645C13.51 12.2927 15.7828 6.41015 18.2784 0.616699L325.376 0.616699C328.04 6.34053 330.318 12.2363 332.195 18.2645C337.65 35.059 340.403 52.6135 340.35 70.2718Z" stroke="#635D5D" stroke-width="0.895757" stroke-miterlimit="10"/>
<path d="M331.526 70.2718C331.56 87.0662 328.943 103.761 323.772 119.739C321.529 126.694 318.804 133.485 315.617 140.061L28.0383 140.061C24.9077 133.46 22.1841 126.673 19.8829 119.739C9.54392 87.6169 9.54392 53.0605 19.8829 20.9384C22.1841 14.0044 24.9077 7.21783 28.0383 0.616699L315.617 0.616699C326.114 22.3348 331.554 46.1496 331.526 70.2718Z" stroke="#635D5D" stroke-width="0.895757" stroke-miterlimit="10"/>
<path d="M322.702 70.2718C322.674 86.1113 320.193 101.851 315.349 116.931C312.719 124.87 309.502 132.601 305.723 140.061L38.0654 140.061C26.7868 118.551 20.8948 94.6261 20.8948 70.3387C20.8948 46.0513 26.7868 22.1265 38.0654 0.616699L305.723 0.616699C309.502 8.07663 312.719 15.8078 315.349 23.7459C320.192 38.7808 322.673 54.4762 322.702 70.2718Z" stroke="#635D5D" stroke-width="0.895757" stroke-miterlimit="10"/>
<path d="M313.745 70.2718C313.75 85.1974 311.451 100.034 306.926 114.258C303.967 123.2 300.161 131.84 295.562 140.061L48.0925 140.061C43.4811 131.864 39.7181 123.218 36.8621 114.258C27.5961 85.7114 27.5961 54.966 36.8621 26.4198C39.7181 17.4592 43.4811 8.81335 48.0925 0.616699L295.562 0.616699C300.161 8.83724 303.967 17.4773 306.926 26.4198C311.452 40.597 313.752 55.39 313.745 70.2718Z" stroke="#635D5D" stroke-width="0.895757" stroke-miterlimit="10"/>
<path d="M304.921 70.2718C304.952 84.2598 302.74 98.1622 298.37 111.45C295.186 121.486 290.786 131.094 285.268 140.061L58.3871 140.061C52.8687 131.094 48.4686 121.486 45.285 111.45C36.5469 84.7389 36.5469 55.9385 45.285 29.2274C48.4686 19.1916 52.8687 9.58328 58.3871 0.616699L285.268 0.616699C290.786 9.58328 295.186 19.1916 298.37 29.2274C302.73 42.4716 304.942 56.3284 304.921 70.2718Z" stroke="#635D5D" stroke-width="0.895757" stroke-miterlimit="10"/>
<path d="M296.097 70.2718C296.121 83.353 294.045 96.3532 289.947 108.776C286.315 119.85 281.187 130.375 274.706 140.061L68.949 140.061C62.4675 130.375 57.3397 119.85 53.7078 108.776C45.6869 83.7788 45.6869 56.8986 53.7078 31.9014C57.3128 20.8168 62.4424 10.2877 68.949 0.616699L274.706 0.616699C281.213 10.2877 286.342 20.8168 289.947 31.9014C294.033 44.281 296.109 57.2353 296.097 70.2718Z" stroke="#635D5D" stroke-width="0.895757" stroke-miterlimit="10"/>
<path d="M287.139 70.2718C287.209 82.396 285.313 94.4512 281.524 105.968C277.774 117.482 272.273 128.35 265.213 138.189C264.691 138.787 264.2 139.412 263.743 140.061L79.912 140.061L78.5751 138.189C71.424 128.386 65.8735 117.511 62.1306 105.968C54.6482 82.8045 54.6482 57.8729 62.1306 34.709C65.8735 23.1666 71.424 12.2913 78.5751 2.48842L79.912 0.616699L263.743 0.616699C264.2 1.26572 264.691 1.89047 265.213 2.48842C272.273 12.3274 277.774 23.195 281.524 34.709C285.303 46.1825 287.2 58.1922 287.139 70.2718Z" stroke="#635D5D" stroke-width="0.895757" stroke-miterlimit="10"/>
<path d="M278.315 70.2718C278.302 81.4833 276.543 92.6242 273.101 103.295C269.669 113.926 264.57 123.944 257.994 132.975C256.256 135.381 254.384 137.788 252.379 140.061L91.2761 140.061C89.4043 137.788 87.3989 135.381 85.6608 132.975C79.0851 123.944 73.9858 113.926 70.5533 103.295C65.3584 87.2979 64.0191 70.2998 66.6446 53.687C69.2701 37.0742 75.7861 21.3175 85.6608 7.70252C87.3989 5.29601 89.2706 2.88952 91.2761 0.616699L252.379 0.616699C254.384 2.88952 256.256 5.29601 257.994 7.70252C264.57 16.7336 269.669 26.7519 273.101 37.3829C276.542 48.0074 278.301 59.1042 278.315 70.2718Z" stroke="#635D5D" stroke-width="0.895757" stroke-miterlimit="10"/>
<path d="M269.492 70.2718C269.467 90.9286 262.916 111.049 250.774 127.761C247.55 132.106 244.02 136.216 240.212 140.061H103.442C99.6347 136.216 96.1052 132.106 92.8804 127.761C83.8815 115.266 77.9362 100.836 75.5215 85.628C73.1069 70.4203 74.2901 54.8583 78.9761 40.1904C82.1156 30.4112 86.8106 21.2019 92.8804 12.9166C96.0371 8.51761 99.571 4.40205 103.442 0.616699L240.212 0.616699C244.084 4.40205 247.618 8.51761 250.774 12.9166C256.844 21.2019 261.539 30.4112 264.679 40.1904C267.846 49.9044 269.47 60.0548 269.492 70.2718Z" stroke="#635D5D" stroke-width="0.895757" stroke-miterlimit="10"/>
<path d="M260.534 70.2718C260.558 79.6196 259.114 88.9131 256.256 97.8131C250.884 114.549 240.586 129.274 226.709 140.061H116.946C110.539 135.039 104.868 129.144 100.1 122.547C89.0087 107.399 83.0298 89.1128 83.0298 70.3387C83.0298 51.5646 89.0087 33.2784 100.1 18.1307C104.868 11.5337 110.539 5.63825 116.946 0.616699L226.843 0.616699C233.184 5.70998 238.846 11.5961 243.689 18.1307C249.108 25.6903 253.345 34.0303 256.256 42.8643C259.105 51.7206 260.549 60.9686 260.534 70.2718Z" stroke="#635D5D" stroke-width="0.895757" stroke-miterlimit="10"/>
<path d="M251.71 70.2718C251.738 78.6699 250.43 87.0188 247.833 95.0054C242.632 111.063 232.475 125.058 218.821 134.98C216.248 136.828 213.57 138.524 210.8 140.061H132.855C130.085 138.524 127.407 136.828 124.834 134.98C111.18 125.058 101.022 111.063 95.8218 95.0054C90.6486 78.9678 90.6486 61.7096 95.8218 45.672C98.4412 37.6904 102.274 30.1597 107.186 23.3449C112.167 16.625 118.114 10.6782 124.834 5.6971C127.407 3.84927 130.085 2.15294 132.855 0.616699L210.8 0.616699C213.57 2.15294 216.248 3.84927 218.821 5.6971C225.541 10.6782 231.488 16.625 236.469 23.3449C241.381 30.1597 245.214 37.6904 247.833 45.672C250.418 53.6154 251.726 61.9185 251.71 70.2718Z" stroke="#635D5D" stroke-width="0.895757" stroke-miterlimit="10"/>
<path d="M242.753 70.2718C242.76 77.7079 241.633 85.1016 239.41 92.1979C234.778 106.478 225.746 118.927 213.607 127.761C207.564 132.097 200.891 135.479 193.82 137.788C191.026 138.748 188.166 139.508 185.264 140.061H158.391C155.488 139.508 152.629 138.748 149.835 137.788C135.596 133.216 123.185 124.224 114.405 112.118C110.042 106.043 106.658 99.3215 104.378 92.1979C102.046 85.1242 100.872 77.7201 100.902 70.2718C100.893 62.8252 102.066 55.4244 104.378 48.3459C107.836 37.7075 113.755 28.0348 121.653 20.1134C129.551 12.1919 139.206 6.24504 149.835 2.75581C152.642 1.95364 155.45 1.15148 158.257 0.616699L185.397 0.616699C188.205 1.15148 191.013 1.95364 193.82 2.75581C204.453 6.26504 214.115 12.2169 222.032 20.1341C229.949 28.0512 235.901 37.7134 239.41 48.3459C241.613 55.4467 242.739 62.8373 242.753 70.2718Z" stroke="#635D5D" stroke-width="0.895757" stroke-miterlimit="10"/>
<path d="M171.894 132.574C206.229 132.574 234.063 104.74 234.063 70.4055C234.063 36.071 206.229 8.2373 171.894 8.2373C137.56 8.2373 109.726 36.071 109.726 70.4055C109.726 104.74 137.56 132.574 171.894 132.574Z" stroke="#635D5D" stroke-width="0.895757" stroke-miterlimit="10"/>
<path d="M171.894 123.616C201.282 123.616 225.105 99.7929 225.105 70.4055C225.105 41.0181 201.282 17.1948 171.894 17.1948C142.507 17.1948 118.684 41.0181 118.684 70.4055C118.684 99.7929 142.507 123.616 171.894 123.616Z" stroke="#635D5D" stroke-width="0.895757" stroke-miterlimit="10"/>
<path d="M171.894 114.792C196.408 114.792 216.281 94.9197 216.281 70.4056C216.281 45.8914 196.408 26.0188 171.894 26.0188C147.38 26.0188 127.507 45.8914 127.507 70.4056C127.507 94.9197 147.38 114.792 171.894 114.792Z" stroke="#635D5D" stroke-width="0.895757" stroke-miterlimit="10"/>
<path d="M171.894 105.835C191.461 105.835 207.323 89.9725 207.323 70.4055C207.323 50.8385 191.461 34.9763 171.894 34.9763C152.327 34.9763 136.465 50.8385 136.465 70.4055C136.465 89.9725 152.327 105.835 171.894 105.835Z" stroke="#635D5D" stroke-width="0.895757" stroke-miterlimit="10"/>
<path d="M171.894 97.011C186.588 97.011 198.5 85.0993 198.5 70.4056C198.5 55.7119 186.588 43.8003 171.894 43.8003C157.201 43.8003 145.289 55.7119 145.289 70.4056C145.289 85.0993 157.201 97.011 171.894 97.011Z" stroke="#635D5D" stroke-width="0.895757" stroke-miterlimit="10"/>
<path d="M171.894 88.1869C181.715 88.1869 189.676 80.2259 189.676 70.4055C189.676 60.5851 181.715 52.624 171.894 52.624C162.074 52.624 154.113 60.5851 154.113 70.4055C154.113 80.2259 162.074 88.1869 171.894 88.1869Z" stroke="#635D5D" stroke-width="0.895757" stroke-miterlimit="10"/>
<path d="M171.894 79.2293C176.767 79.2293 180.718 75.2787 180.718 70.4054C180.718 65.5321 176.767 61.5815 171.894 61.5815C167.021 61.5815 163.07 65.5321 163.07 70.4054C163.07 75.2787 167.021 79.2293 171.894 79.2293Z" stroke="#635D5D" stroke-width="0.895757" stroke-miterlimit="10"/>
</g>
<defs>
<clipPath id="clip0_945_1943">
<rect width="341.992" height="140.246" fill="white" transform="translate(0.898193 0.215576)"/>
</clipPath>
</defs>
</svg>
