<svg xmlns="http://www.w3.org/2000/svg" width="105" height="105" viewBox="0 0 105 105" fill="none">
<mask id="path-1-inside-1_230_1854" fill="white">
<path d="M97.3926 48.5388L86.9926 45.0388C86.6882 44.9256 86.416 44.7398 86.1995 44.4978C85.983 44.2557 85.8287 43.9646 85.7499 43.6495C85.6712 43.3344 85.6703 43.0049 85.7474 42.6894C85.8246 42.374 85.9774 42.082 86.1926 41.8388L93.5926 33.7388C93.8461 33.4432 94.0077 33.0799 94.0577 32.6937C94.1076 32.3074 94.0437 31.915 93.8738 31.5646C93.7039 31.2142 93.4354 30.921 93.1012 30.721C92.767 30.521 92.3817 30.4229 91.9926 30.4388L81.0926 31.4388C80.7693 31.4482 80.4481 31.3827 80.1542 31.2474C79.8603 31.1122 79.6016 30.9109 79.3984 30.6592C79.1951 30.4075 79.0527 30.1123 78.9823 29.7965C78.9119 29.4808 78.9154 29.153 78.9926 28.8388L82.4926 18.4388C82.6431 18.064 82.6702 17.651 82.57 17.2597C82.4698 16.8684 82.2475 16.5192 81.9354 16.2629C81.6233 16.0065 81.2376 15.8562 80.8343 15.8339C80.431 15.8116 80.0311 15.9184 79.6926 16.1388L70.0926 21.4388C69.8131 21.6127 69.4932 21.7109 69.1643 21.7239C68.8354 21.7369 68.5087 21.6642 68.2164 21.513C67.924 21.3618 67.6759 21.1372 67.4964 20.8612C67.317 20.5853 67.2123 20.2674 67.1926 19.9388L66.0926 8.93882C66.0675 8.53841 65.9163 8.15622 65.6607 7.84701C65.405 7.53781 65.0581 7.31747 64.6695 7.21756C64.281 7.11764 63.8708 7.14328 63.4977 7.29081C63.1246 7.43835 62.8078 7.70019 62.5926 8.03883L55.9926 16.7388C55.7932 16.9966 55.5338 17.2017 55.237 17.3364C54.9403 17.471 54.615 17.5311 54.2897 17.5114C53.9644 17.4917 53.6489 17.3928 53.3705 17.2233C53.0922 17.0538 52.8594 16.8188 52.6926 16.5388L47.2926 7.03883C47.0983 6.68426 46.8011 6.39691 46.4402 6.21467C46.0792 6.03244 45.6716 5.96387 45.2709 6.01802C44.8702 6.07216 44.4953 6.24647 44.1957 6.51797C43.8961 6.78947 43.6859 7.1454 43.5926 7.53883L41.1926 18.2388C41.1207 18.5595 40.971 18.8575 40.7565 19.1066C40.5421 19.3556 40.2695 19.5479 39.9631 19.6665C39.6566 19.7852 39.3255 19.8265 38.9993 19.7868C38.6731 19.747 38.3617 19.6275 38.0926 19.4388L29.2926 12.9388C28.9879 12.6683 28.6043 12.5029 28.1983 12.4671C27.7924 12.4312 27.3858 12.5268 27.0384 12.7397C26.691 12.9527 26.4212 13.2717 26.2689 13.6496C26.1166 14.0276 26.0899 14.4445 26.1926 14.8388L28.2926 25.6388C28.3496 25.9625 28.326 26.2952 28.2238 26.6076C28.1216 26.9199 27.944 27.2022 27.7067 27.4296C27.4694 27.657 27.1798 27.8224 26.8634 27.9113C26.547 28.0001 26.2136 28.0095 25.8926 27.9388L15.1926 25.5388C14.8046 25.4698 14.4047 25.5169 14.0434 25.6743C13.682 25.8317 13.3752 26.0924 13.1615 26.4236C12.9479 26.7548 12.8368 27.1418 12.8423 27.5359C12.8479 27.93 12.9697 28.3137 13.1926 28.6388L19.4926 37.6388C19.6848 37.8992 19.8074 38.2043 19.8487 38.5254C19.8899 38.8464 19.8485 39.1726 19.7283 39.4731C19.6081 39.7736 19.4131 40.0384 19.1618 40.2424C18.9106 40.4464 18.6114 40.5829 18.2926 40.6388L7.4926 42.8388C7.11951 42.9367 6.78269 43.1403 6.52269 43.4252C6.26269 43.7101 6.09062 44.0641 6.02721 44.4446C5.9638 44.825 6.01179 45.2157 6.16533 45.5696C6.31887 45.9234 6.57144 46.2253 6.89262 46.4388L16.2926 52.1388C16.5726 52.3056 16.8075 52.5384 16.977 52.8167C17.1465 53.0951 17.2455 53.4106 17.2652 53.7359C17.2849 54.0612 17.2248 54.3865 17.0902 54.6832C16.9555 54.98 16.7504 55.2394 16.4926 55.4388L7.4926 61.8388C7.20055 62.0877 6.98631 62.4154 6.87535 62.7827C6.76439 63.15 6.76139 63.5415 6.86681 63.9105C6.97222 64.2794 7.18156 64.6103 7.46983 64.8636C7.75811 65.1168 8.11314 65.2818 8.4926 65.3388L19.3926 66.6388C19.7151 66.6906 20.0199 66.8206 20.2806 67.0174C20.5412 67.2142 20.7497 67.4718 20.8878 67.7677C21.0259 68.0637 21.0895 68.389 21.0729 68.7151C21.0563 69.0413 20.9601 69.3584 20.7926 69.6388L15.2926 79.0388C15.0517 79.3689 14.9235 79.7679 14.9272 80.1766C14.931 80.5853 15.0664 80.9819 15.3135 81.3075C15.5605 81.6331 15.9059 81.8704 16.2984 81.9841C16.691 82.0979 17.1098 82.082 17.4926 81.9388L27.9926 78.7388C28.3082 78.6378 28.644 78.6168 28.9698 78.6777C29.2955 78.7387 29.6011 78.8796 29.8589 79.0878C30.1167 79.296 30.3187 79.5651 30.4468 79.8707C30.5748 80.1763 30.625 80.509 30.5926 80.8388L29.2926 91.7388C29.2552 92.1364 29.3375 92.5361 29.5292 92.8864C29.7208 93.2367 30.0129 93.5216 30.3679 93.7045C30.7229 93.8874 31.1244 93.9598 31.5209 93.9124C31.9174 93.8651 32.2907 93.7002 32.5926 93.4388L40.8926 86.2388C41.1329 86.0228 41.4243 85.8715 41.7393 85.7994C42.0543 85.7274 42.3825 85.7368 42.6929 85.8269C43.0032 85.917 43.2854 86.0848 43.5129 86.3143C43.7403 86.5439 43.9054 86.8277 43.9926 87.1388L47.3926 97.5388C47.4849 97.9289 47.6982 98.2797 48.0019 98.5413C48.3057 98.8028 48.6844 98.9615 49.0838 98.9948C49.4832 99.0281 49.883 98.9342 50.2258 98.7266C50.5687 98.519 50.837 98.2082 50.9926 97.8388L55.5926 87.8388C55.7315 87.5387 55.9426 87.2777 56.2071 87.0792C56.4716 86.8806 56.7812 86.7508 57.1081 86.7012C57.4351 86.6517 57.7693 86.684 58.0807 86.7953C58.3921 86.9066 58.6711 87.0933 58.8926 87.3388L66.1926 95.5388C66.442 95.8626 66.7892 96.0973 67.1826 96.2082C67.576 96.319 67.9946 96.3 68.3764 96.1541C68.7581 96.0081 69.0826 95.7429 69.3017 95.3979C69.5208 95.0529 69.6229 94.6464 69.5926 94.2388L69.7926 83.3388C69.7981 83.0096 69.8847 82.6867 70.0448 82.399C70.205 82.1112 70.4338 81.8675 70.7109 81.6894C70.9879 81.5113 71.3046 81.4044 71.6329 81.3781C71.9611 81.3518 72.2908 81.407 72.5926 81.5388L82.5926 86.0388C82.9459 86.2249 83.3488 86.295 83.7442 86.2391C84.1396 86.1832 84.5073 86.0042 84.7951 85.7274C85.0829 85.4507 85.2763 85.0903 85.3476 84.6974C85.419 84.3045 85.3647 83.8991 85.1926 83.5388L80.8926 73.4388C80.7608 73.137 80.7057 72.8073 80.7319 72.479C80.7582 72.1508 80.8651 71.8341 81.0432 71.557C81.2213 71.28 81.465 71.0513 81.7527 70.8911C82.0405 70.7309 82.3633 70.6442 82.6926 70.6388H93.6926C94.0756 70.6149 94.4436 70.4814 94.7528 70.2541C95.062 70.0268 95.2992 69.7154 95.4363 69.357C95.5733 68.9986 95.6043 68.6083 95.5257 68.2327C95.447 67.8572 95.2619 67.5121 94.9926 67.2388L86.9926 59.7388C86.7452 59.5282 86.556 59.2576 86.443 58.953C86.33 58.6484 86.2971 58.3199 86.3472 57.9989C86.3974 57.6779 86.529 57.3751 86.7295 57.1195C86.9301 56.8639 87.1928 56.664 87.4926 56.5388L97.5926 52.1388C97.9227 51.9571 98.1947 51.6858 98.3773 51.3562C98.5599 51.0266 98.6458 50.6521 98.6249 50.2759C98.604 49.8997 98.4772 49.537 98.2592 49.2297C98.0412 48.9224 97.7408 48.6829 97.3926 48.5388Z"/>
</mask>
<path d="M97.3926 48.5388L86.9926 45.0388C86.6882 44.9256 86.416 44.7398 86.1995 44.4978C85.983 44.2557 85.8287 43.9646 85.7499 43.6495C85.6712 43.3344 85.6703 43.0049 85.7474 42.6894C85.8246 42.374 85.9774 42.082 86.1926 41.8388L93.5926 33.7388C93.8461 33.4432 94.0077 33.0799 94.0577 32.6937C94.1076 32.3074 94.0437 31.915 93.8738 31.5646C93.7039 31.2142 93.4354 30.921 93.1012 30.721C92.767 30.521 92.3817 30.4229 91.9926 30.4388L81.0926 31.4388C80.7693 31.4482 80.4481 31.3827 80.1542 31.2474C79.8603 31.1122 79.6016 30.9109 79.3984 30.6592C79.1951 30.4075 79.0527 30.1123 78.9823 29.7965C78.9119 29.4808 78.9154 29.153 78.9926 28.8388L82.4926 18.4388C82.6431 18.064 82.6702 17.651 82.57 17.2597C82.4698 16.8684 82.2475 16.5192 81.9354 16.2629C81.6233 16.0065 81.2376 15.8562 80.8343 15.8339C80.431 15.8116 80.0311 15.9184 79.6926 16.1388L70.0926 21.4388C69.8131 21.6127 69.4932 21.7109 69.1643 21.7239C68.8354 21.7369 68.5087 21.6642 68.2164 21.513C67.924 21.3618 67.6759 21.1372 67.4964 20.8612C67.317 20.5853 67.2123 20.2674 67.1926 19.9388L66.0926 8.93882C66.0675 8.53841 65.9163 8.15622 65.6607 7.84701C65.405 7.53781 65.0581 7.31747 64.6695 7.21756C64.281 7.11764 63.8708 7.14328 63.4977 7.29081C63.1246 7.43835 62.8078 7.70019 62.5926 8.03883L55.9926 16.7388C55.7932 16.9966 55.5338 17.2017 55.237 17.3364C54.9403 17.471 54.615 17.5311 54.2897 17.5114C53.9644 17.4917 53.6489 17.3928 53.3705 17.2233C53.0922 17.0538 52.8594 16.8188 52.6926 16.5388L47.2926 7.03883C47.0983 6.68426 46.8011 6.39691 46.4402 6.21467C46.0792 6.03244 45.6716 5.96387 45.2709 6.01802C44.8702 6.07216 44.4953 6.24647 44.1957 6.51797C43.8961 6.78947 43.6859 7.1454 43.5926 7.53883L41.1926 18.2388C41.1207 18.5595 40.971 18.8575 40.7565 19.1066C40.5421 19.3556 40.2695 19.5479 39.9631 19.6665C39.6566 19.7852 39.3255 19.8265 38.9993 19.7868C38.6731 19.747 38.3617 19.6275 38.0926 19.4388L29.2926 12.9388C28.9879 12.6683 28.6043 12.5029 28.1983 12.4671C27.7924 12.4312 27.3858 12.5268 27.0384 12.7397C26.691 12.9527 26.4212 13.2717 26.2689 13.6496C26.1166 14.0276 26.0899 14.4445 26.1926 14.8388L28.2926 25.6388C28.3496 25.9625 28.326 26.2952 28.2238 26.6076C28.1216 26.9199 27.944 27.2022 27.7067 27.4296C27.4694 27.657 27.1798 27.8224 26.8634 27.9113C26.547 28.0001 26.2136 28.0095 25.8926 27.9388L15.1926 25.5388C14.8046 25.4698 14.4047 25.5169 14.0434 25.6743C13.682 25.8317 13.3752 26.0924 13.1615 26.4236C12.9479 26.7548 12.8368 27.1418 12.8423 27.5359C12.8479 27.93 12.9697 28.3137 13.1926 28.6388L19.4926 37.6388C19.6848 37.8992 19.8074 38.2043 19.8487 38.5254C19.8899 38.8464 19.8485 39.1726 19.7283 39.4731C19.6081 39.7736 19.4131 40.0384 19.1618 40.2424C18.9106 40.4464 18.6114 40.5829 18.2926 40.6388L7.4926 42.8388C7.11951 42.9367 6.78269 43.1403 6.52269 43.4252C6.26269 43.7101 6.09062 44.0641 6.02721 44.4446C5.9638 44.825 6.01179 45.2157 6.16533 45.5696C6.31887 45.9234 6.57144 46.2253 6.89262 46.4388L16.2926 52.1388C16.5726 52.3056 16.8075 52.5384 16.977 52.8167C17.1465 53.0951 17.2455 53.4106 17.2652 53.7359C17.2849 54.0612 17.2248 54.3865 17.0902 54.6832C16.9555 54.98 16.7504 55.2394 16.4926 55.4388L7.4926 61.8388C7.20055 62.0877 6.98631 62.4154 6.87535 62.7827C6.76439 63.15 6.76139 63.5415 6.86681 63.9105C6.97222 64.2794 7.18156 64.6103 7.46983 64.8636C7.75811 65.1168 8.11314 65.2818 8.4926 65.3388L19.3926 66.6388C19.7151 66.6906 20.0199 66.8206 20.2806 67.0174C20.5412 67.2142 20.7497 67.4718 20.8878 67.7677C21.0259 68.0637 21.0895 68.389 21.0729 68.7151C21.0563 69.0413 20.9601 69.3584 20.7926 69.6388L15.2926 79.0388C15.0517 79.3689 14.9235 79.7679 14.9272 80.1766C14.931 80.5853 15.0664 80.9819 15.3135 81.3075C15.5605 81.6331 15.9059 81.8704 16.2984 81.9841C16.691 82.0979 17.1098 82.082 17.4926 81.9388L27.9926 78.7388C28.3082 78.6378 28.644 78.6168 28.9698 78.6777C29.2955 78.7387 29.6011 78.8796 29.8589 79.0878C30.1167 79.296 30.3187 79.5651 30.4468 79.8707C30.5748 80.1763 30.625 80.509 30.5926 80.8388L29.2926 91.7388C29.2552 92.1364 29.3375 92.5361 29.5292 92.8864C29.7208 93.2367 30.0129 93.5216 30.3679 93.7045C30.7229 93.8874 31.1244 93.9598 31.5209 93.9124C31.9174 93.8651 32.2907 93.7002 32.5926 93.4388L40.8926 86.2388C41.1329 86.0228 41.4243 85.8715 41.7393 85.7994C42.0543 85.7274 42.3825 85.7368 42.6929 85.8269C43.0032 85.917 43.2854 86.0848 43.5129 86.3143C43.7403 86.5439 43.9054 86.8277 43.9926 87.1388L47.3926 97.5388C47.4849 97.9289 47.6982 98.2797 48.0019 98.5413C48.3057 98.8028 48.6844 98.9615 49.0838 98.9948C49.4832 99.0281 49.883 98.9342 50.2258 98.7266C50.5687 98.519 50.837 98.2082 50.9926 97.8388L55.5926 87.8388C55.7315 87.5387 55.9426 87.2777 56.2071 87.0792C56.4716 86.8806 56.7812 86.7508 57.1081 86.7012C57.4351 86.6517 57.7693 86.684 58.0807 86.7953C58.3921 86.9066 58.6711 87.0933 58.8926 87.3388L66.1926 95.5388C66.442 95.8626 66.7892 96.0973 67.1826 96.2082C67.576 96.319 67.9946 96.3 68.3764 96.1541C68.7581 96.0081 69.0826 95.7429 69.3017 95.3979C69.5208 95.0529 69.6229 94.6464 69.5926 94.2388L69.7926 83.3388C69.7981 83.0096 69.8847 82.6867 70.0448 82.399C70.205 82.1112 70.4338 81.8675 70.7109 81.6894C70.9879 81.5113 71.3046 81.4044 71.6329 81.3781C71.9611 81.3518 72.2908 81.407 72.5926 81.5388L82.5926 86.0388C82.9459 86.2249 83.3488 86.295 83.7442 86.2391C84.1396 86.1832 84.5073 86.0042 84.7951 85.7274C85.0829 85.4507 85.2763 85.0903 85.3476 84.6974C85.419 84.3045 85.3647 83.8991 85.1926 83.5388L80.8926 73.4388C80.7608 73.137 80.7057 72.8073 80.7319 72.479C80.7582 72.1508 80.8651 71.8341 81.0432 71.557C81.2213 71.28 81.465 71.0513 81.7527 70.8911C82.0405 70.7309 82.3633 70.6442 82.6926 70.6388H93.6926C94.0756 70.6149 94.4436 70.4814 94.7528 70.2541C95.062 70.0268 95.2992 69.7154 95.4363 69.357C95.5733 68.9986 95.6043 68.6083 95.5257 68.2327C95.447 67.8572 95.2619 67.5121 94.9926 67.2388L86.9926 59.7388C86.7452 59.5282 86.556 59.2576 86.443 58.953C86.33 58.6484 86.2971 58.3199 86.3472 57.9989C86.3974 57.6779 86.529 57.3751 86.7295 57.1195C86.9301 56.8639 87.1928 56.664 87.4926 56.5388L97.5926 52.1388C97.9227 51.9571 98.1947 51.6858 98.3773 51.3562C98.5599 51.0266 98.6458 50.6521 98.6249 50.2759C98.604 49.8997 98.4772 49.537 98.2592 49.2297C98.0412 48.9224 97.7408 48.6829 97.3926 48.5388Z" fill="#FFCC33" stroke="white" stroke-width="2" mask="url(#path-1-inside-1_230_1854)"/>
<mask id="path-2-inside-2_230_1854" fill="white">
<path d="M103.6 48.027L91.8106 44.0754C91.4655 43.9476 91.157 43.7379 90.9115 43.4646C90.6661 43.1913 90.4912 42.8626 90.4019 42.5069C90.3126 42.1512 90.3116 41.7791 90.3991 41.4229C90.4865 41.0668 90.6597 40.7372 90.9037 40.4626L99.2921 31.3176C99.5795 30.9837 99.7627 30.5736 99.8193 30.1376C99.8759 29.7015 99.8035 29.2585 99.6109 28.8629C99.4183 28.4672 99.1139 28.1362 98.735 27.9104C98.3562 27.6846 97.9195 27.5739 97.4784 27.5918L85.1226 28.7208C84.756 28.7314 84.3919 28.6574 84.0587 28.5047C83.7256 28.3521 83.4324 28.1248 83.202 27.8406C82.9715 27.5565 82.8101 27.2232 82.7303 26.8667C82.6506 26.5102 82.6545 26.1401 82.742 25.7854L86.7095 14.0436C86.8801 13.6204 86.9108 13.1541 86.7972 12.7124C86.6836 12.2706 86.4317 11.8764 86.0779 11.5869C85.7241 11.2975 85.2868 11.1278 84.8297 11.1027C84.3725 11.0775 83.9192 11.1981 83.5355 11.4469L72.6533 17.4307C72.3364 17.6269 71.9738 17.7379 71.601 17.7525C71.2281 17.7672 70.8578 17.6852 70.5264 17.5144C70.195 17.3437 69.9138 17.0901 69.7104 16.7785C69.5069 16.467 69.3882 16.1081 69.3659 15.7371L68.119 3.31798C68.0906 2.86591 67.9192 2.4344 67.6294 2.08531C67.3396 1.73621 66.9463 1.48745 66.5059 1.37464C66.0654 1.26183 65.6004 1.29078 65.1775 1.45735C64.7545 1.62391 64.3954 1.91954 64.1516 2.30187L56.67 12.1243C56.4439 12.4153 56.1499 12.6469 55.8135 12.7989C55.4771 12.951 55.1084 13.0188 54.7396 12.9965C54.3709 12.9743 54.0132 12.8626 53.6977 12.6712C53.3821 12.4799 53.1183 12.2146 52.9292 11.8985L46.808 1.17286C46.5877 0.772542 46.2508 0.448117 45.8417 0.242369C45.4325 0.0366197 44.9704 -0.0407898 44.5162 0.0203417C44.062 0.0814733 43.637 0.278272 43.2974 0.584798C42.9578 0.891324 42.7195 1.29318 42.6138 1.73736L39.8932 13.8178C39.8117 14.1799 39.642 14.5164 39.3988 14.7975C39.1557 15.0787 38.8468 15.2958 38.4994 15.4297C38.152 15.5637 37.7767 15.6103 37.4069 15.5655C37.0371 15.5206 36.6842 15.3857 36.3792 15.1726L26.4038 7.83404C26.0584 7.52861 25.6234 7.34187 25.1633 7.3014C24.7032 7.26093 24.2422 7.36887 23.8484 7.60927C23.4546 7.84968 23.1488 8.20984 22.9762 8.63656C22.8035 9.06329 22.7732 9.53399 22.8897 9.97918L25.2702 22.1725C25.3348 22.538 25.308 22.9136 25.1922 23.2663C25.0763 23.6189 24.875 23.9377 24.606 24.1944C24.337 24.4511 24.0087 24.6379 23.6501 24.7381C23.2914 24.8384 22.9134 24.8491 22.5496 24.7693L10.4204 22.0596C9.98055 21.9817 9.52734 22.0349 9.11771 22.2126C8.70809 22.3903 8.36032 22.6847 8.11809 23.0586C7.87587 23.4325 7.74998 23.8694 7.75624 24.3144C7.76251 24.7593 7.90065 25.1926 8.15331 25.5596L15.2948 35.7207C15.5127 36.0147 15.6517 36.3592 15.6984 36.7216C15.7452 37.0841 15.6982 37.4524 15.5619 37.7916C15.4256 38.1309 15.2046 38.4299 14.9198 38.6602C14.635 38.8905 14.2959 39.0446 13.9345 39.1078L1.69196 41.5916C1.26904 41.7021 0.887227 41.932 0.592504 42.2537C0.29778 42.5753 0.102719 42.975 0.03084 43.4045C-0.0410389 43.8341 0.0133614 44.2752 0.187411 44.6747C0.361461 45.0741 0.647767 45.4149 1.01185 45.6561L11.6674 52.0914C11.9848 52.2798 12.2511 52.5425 12.4432 52.8568C12.6354 53.1711 12.7475 53.5273 12.7698 53.8946C12.7922 54.2619 12.7241 54.6291 12.5715 54.9641C12.4188 55.2992 12.1863 55.5921 11.8941 55.8172L1.69196 63.0429C1.3609 63.3239 1.11805 63.6938 0.992269 64.1086C0.866488 64.5233 0.863086 64.9653 0.982583 65.3818C1.10208 65.7984 1.33938 66.1719 1.66615 66.4579C1.99293 66.7438 2.39539 66.9301 2.82553 66.9945L15.1814 68.4622C15.547 68.5207 15.8925 68.6674 16.188 68.8896C16.4834 69.1117 16.7198 69.4026 16.8763 69.7367C17.0329 70.0709 17.1049 70.4381 17.0861 70.8063C17.0673 71.1746 16.9583 71.5326 16.7685 71.8492L10.5338 82.462C10.2607 82.8347 10.1154 83.2851 10.1196 83.7466C10.1239 84.208 10.2774 84.6557 10.5574 85.0234C10.8374 85.391 11.229 85.6589 11.674 85.7873C12.119 85.9157 12.5937 85.8978 13.0276 85.7361L24.9301 82.1233C25.2879 82.0092 25.6685 81.9855 26.0378 82.0543C26.407 82.1231 26.7534 82.2822 27.0456 82.5173C27.3379 82.7524 27.5669 83.0561 27.712 83.4012C27.8572 83.7462 27.9141 84.1218 27.8774 84.4942L26.4038 96.8005C26.3613 97.2493 26.4547 97.7006 26.6719 98.0961C26.8891 98.4916 27.2203 98.8133 27.6227 99.0197C28.0251 99.2262 28.4802 99.308 28.9297 99.2545C29.3791 99.2011 29.8023 99.0148 30.1445 98.7198L39.5531 90.5909C39.8255 90.3469 40.1558 90.1762 40.5129 90.0948C40.87 90.0134 41.242 90.0241 41.5938 90.1258C41.9456 90.2275 42.2655 90.417 42.5234 90.6761C42.7812 90.9353 42.9683 91.2557 43.0672 91.607L46.9213 103.349C47.0259 103.789 47.2677 104.185 47.612 104.481C47.9563 104.776 48.3856 104.955 48.8384 104.993C49.2911 105.03 49.7443 104.924 50.1329 104.69C50.5216 104.455 50.8258 104.105 51.0021 103.687L56.2166 92.3973C56.374 92.0585 56.6133 91.7638 56.9131 91.5396C57.2129 91.3155 57.5639 91.1689 57.9345 91.1129C58.3052 91.057 58.6839 91.0935 59.0369 91.2191C59.39 91.3448 59.7062 91.5556 59.9573 91.8328L68.2324 101.091C68.5151 101.456 68.9087 101.721 69.3546 101.846C69.8005 101.972 70.2751 101.95 70.7078 101.785C71.1406 101.621 71.5084 101.321 71.7568 100.932C72.0051 100.542 72.1208 100.083 72.0865 99.623L72.3133 87.3167C72.3194 86.945 72.4176 86.5805 72.5991 86.2556C72.7807 85.9307 73.0401 85.6556 73.3541 85.4545C73.6681 85.2534 74.0271 85.1327 74.3993 85.1031C74.7714 85.0734 75.1451 85.1357 75.4872 85.2845L86.8229 90.3651C87.2234 90.5752 87.6801 90.6544 88.1283 90.5912C88.5764 90.5281 88.9933 90.326 89.3195 90.0135C89.6458 89.701 89.865 89.2941 89.9459 88.8506C90.0268 88.407 89.9653 87.9493 89.7701 87.5425L84.8958 76.1395C84.7464 75.7987 84.6839 75.4265 84.7137 75.0559C84.7434 74.6852 84.8646 74.3277 85.0665 74.0149C85.2684 73.7022 85.5446 73.4439 85.8708 73.263C86.197 73.0822 86.563 72.9844 86.9362 72.9782H99.4055C99.8396 72.9513 100.257 72.8005 100.607 72.5439C100.958 72.2873 101.227 71.9357 101.382 71.531C101.537 71.1264 101.573 70.6857 101.483 70.2617C101.394 69.8377 101.184 69.4482 100.879 69.1396L91.8106 60.672C91.5302 60.4342 91.3157 60.1287 91.1876 59.7848C91.0595 59.4409 91.0221 59.07 91.079 58.7076C91.1358 58.3452 91.285 58.0033 91.5124 57.7147C91.7397 57.4261 92.0375 57.2004 92.3773 57.0591L103.826 52.0914C104.201 51.8862 104.509 51.58 104.716 51.2079C104.923 50.8357 105.02 50.413 104.997 49.9882C104.973 49.5634 104.829 49.154 104.582 48.807C104.335 48.46 103.994 48.1897 103.6 48.027Z"/>
</mask>
<path d="M103.6 48.027L91.8106 44.0754C91.4655 43.9476 91.157 43.7379 90.9115 43.4646C90.6661 43.1913 90.4912 42.8626 90.4019 42.5069C90.3126 42.1512 90.3116 41.7791 90.3991 41.4229C90.4865 41.0668 90.6597 40.7372 90.9037 40.4626L99.2921 31.3176C99.5795 30.9837 99.7627 30.5736 99.8193 30.1376C99.8759 29.7015 99.8035 29.2585 99.6109 28.8629C99.4183 28.4672 99.1139 28.1362 98.735 27.9104C98.3562 27.6846 97.9195 27.5739 97.4784 27.5918L85.1226 28.7208C84.756 28.7314 84.3919 28.6574 84.0587 28.5047C83.7256 28.3521 83.4324 28.1248 83.202 27.8406C82.9715 27.5565 82.8101 27.2232 82.7303 26.8667C82.6506 26.5102 82.6545 26.1401 82.742 25.7854L86.7095 14.0436C86.8801 13.6204 86.9108 13.1541 86.7972 12.7124C86.6836 12.2706 86.4317 11.8764 86.0779 11.5869C85.7241 11.2975 85.2868 11.1278 84.8297 11.1027C84.3725 11.0775 83.9192 11.1981 83.5355 11.4469L72.6533 17.4307C72.3364 17.6269 71.9738 17.7379 71.601 17.7525C71.2281 17.7672 70.8578 17.6852 70.5264 17.5144C70.195 17.3437 69.9138 17.0901 69.7104 16.7785C69.5069 16.467 69.3882 16.1081 69.3659 15.7371L68.119 3.31798C68.0906 2.86591 67.9192 2.4344 67.6294 2.08531C67.3396 1.73621 66.9463 1.48745 66.5059 1.37464C66.0654 1.26183 65.6004 1.29078 65.1775 1.45735C64.7545 1.62391 64.3954 1.91954 64.1516 2.30187L56.67 12.1243C56.4439 12.4153 56.1499 12.6469 55.8135 12.7989C55.4771 12.951 55.1084 13.0188 54.7396 12.9965C54.3709 12.9743 54.0132 12.8626 53.6977 12.6712C53.3821 12.4799 53.1183 12.2146 52.9292 11.8985L46.808 1.17286C46.5877 0.772542 46.2508 0.448117 45.8417 0.242369C45.4325 0.0366197 44.9704 -0.0407898 44.5162 0.0203417C44.062 0.0814733 43.637 0.278272 43.2974 0.584798C42.9578 0.891324 42.7195 1.29318 42.6138 1.73736L39.8932 13.8178C39.8117 14.1799 39.642 14.5164 39.3988 14.7975C39.1557 15.0787 38.8468 15.2958 38.4994 15.4297C38.152 15.5637 37.7767 15.6103 37.4069 15.5655C37.0371 15.5206 36.6842 15.3857 36.3792 15.1726L26.4038 7.83404C26.0584 7.52861 25.6234 7.34187 25.1633 7.3014C24.7032 7.26093 24.2422 7.36887 23.8484 7.60927C23.4546 7.84968 23.1488 8.20984 22.9762 8.63656C22.8035 9.06329 22.7732 9.53399 22.8897 9.97918L25.2702 22.1725C25.3348 22.538 25.308 22.9136 25.1922 23.2663C25.0763 23.6189 24.875 23.9377 24.606 24.1944C24.337 24.4511 24.0087 24.6379 23.6501 24.7381C23.2914 24.8384 22.9134 24.8491 22.5496 24.7693L10.4204 22.0596C9.98055 21.9817 9.52734 22.0349 9.11771 22.2126C8.70809 22.3903 8.36032 22.6847 8.11809 23.0586C7.87587 23.4325 7.74998 23.8694 7.75624 24.3144C7.76251 24.7593 7.90065 25.1926 8.15331 25.5596L15.2948 35.7207C15.5127 36.0147 15.6517 36.3592 15.6984 36.7216C15.7452 37.0841 15.6982 37.4524 15.5619 37.7916C15.4256 38.1309 15.2046 38.4299 14.9198 38.6602C14.635 38.8905 14.2959 39.0446 13.9345 39.1078L1.69196 41.5916C1.26904 41.7021 0.887227 41.932 0.592504 42.2537C0.29778 42.5753 0.102719 42.975 0.03084 43.4045C-0.0410389 43.8341 0.0133614 44.2752 0.187411 44.6747C0.361461 45.0741 0.647767 45.4149 1.01185 45.6561L11.6674 52.0914C11.9848 52.2798 12.2511 52.5425 12.4432 52.8568C12.6354 53.1711 12.7475 53.5273 12.7698 53.8946C12.7922 54.2619 12.7241 54.6291 12.5715 54.9641C12.4188 55.2992 12.1863 55.5921 11.8941 55.8172L1.69196 63.0429C1.3609 63.3239 1.11805 63.6938 0.992269 64.1086C0.866488 64.5233 0.863086 64.9653 0.982583 65.3818C1.10208 65.7984 1.33938 66.1719 1.66615 66.4579C1.99293 66.7438 2.39539 66.9301 2.82553 66.9945L15.1814 68.4622C15.547 68.5207 15.8925 68.6674 16.188 68.8896C16.4834 69.1117 16.7198 69.4026 16.8763 69.7367C17.0329 70.0709 17.1049 70.4381 17.0861 70.8063C17.0673 71.1746 16.9583 71.5326 16.7685 71.8492L10.5338 82.462C10.2607 82.8347 10.1154 83.2851 10.1196 83.7466C10.1239 84.208 10.2774 84.6557 10.5574 85.0234C10.8374 85.391 11.229 85.6589 11.674 85.7873C12.119 85.9157 12.5937 85.8978 13.0276 85.7361L24.9301 82.1233C25.2879 82.0092 25.6685 81.9855 26.0378 82.0543C26.407 82.1231 26.7534 82.2822 27.0456 82.5173C27.3379 82.7524 27.5669 83.0561 27.712 83.4012C27.8572 83.7462 27.9141 84.1218 27.8774 84.4942L26.4038 96.8005C26.3613 97.2493 26.4547 97.7006 26.6719 98.0961C26.8891 98.4916 27.2203 98.8133 27.6227 99.0197C28.0251 99.2262 28.4802 99.308 28.9297 99.2545C29.3791 99.2011 29.8023 99.0148 30.1445 98.7198L39.5531 90.5909C39.8255 90.3469 40.1558 90.1762 40.5129 90.0948C40.87 90.0134 41.242 90.0241 41.5938 90.1258C41.9456 90.2275 42.2655 90.417 42.5234 90.6761C42.7812 90.9353 42.9683 91.2557 43.0672 91.607L46.9213 103.349C47.0259 103.789 47.2677 104.185 47.612 104.481C47.9563 104.776 48.3856 104.955 48.8384 104.993C49.2911 105.03 49.7443 104.924 50.1329 104.69C50.5216 104.455 50.8258 104.105 51.0021 103.687L56.2166 92.3973C56.374 92.0585 56.6133 91.7638 56.9131 91.5396C57.2129 91.3155 57.5639 91.1689 57.9345 91.1129C58.3052 91.057 58.6839 91.0935 59.0369 91.2191C59.39 91.3448 59.7062 91.5556 59.9573 91.8328L68.2324 101.091C68.5151 101.456 68.9087 101.721 69.3546 101.846C69.8005 101.972 70.2751 101.95 70.7078 101.785C71.1406 101.621 71.5084 101.321 71.7568 100.932C72.0051 100.542 72.1208 100.083 72.0865 99.623L72.3133 87.3167C72.3194 86.945 72.4176 86.5805 72.5991 86.2556C72.7807 85.9307 73.0401 85.6556 73.3541 85.4545C73.6681 85.2534 74.0271 85.1327 74.3993 85.1031C74.7714 85.0734 75.1451 85.1357 75.4872 85.2845L86.8229 90.3651C87.2234 90.5752 87.6801 90.6544 88.1283 90.5912C88.5764 90.5281 88.9933 90.326 89.3195 90.0135C89.6458 89.701 89.865 89.2941 89.9459 88.8506C90.0268 88.407 89.9653 87.9493 89.7701 87.5425L84.8958 76.1395C84.7464 75.7987 84.6839 75.4265 84.7137 75.0559C84.7434 74.6852 84.8646 74.3277 85.0665 74.0149C85.2684 73.7022 85.5446 73.4439 85.8708 73.263C86.197 73.0822 86.563 72.9844 86.9362 72.9782H99.4055C99.8396 72.9513 100.257 72.8005 100.607 72.5439C100.958 72.2873 101.227 71.9357 101.382 71.531C101.537 71.1264 101.573 70.6857 101.483 70.2617C101.394 69.8377 101.184 69.4482 100.879 69.1396L91.8106 60.672C91.5302 60.4342 91.3157 60.1287 91.1876 59.7848C91.0595 59.4409 91.0221 59.07 91.079 58.7076C91.1358 58.3452 91.285 58.0033 91.5124 57.7147C91.7397 57.4261 92.0375 57.2004 92.3773 57.0591L103.826 52.0914C104.201 51.8862 104.509 51.58 104.716 51.2079C104.923 50.8357 105.02 50.413 104.997 49.9882C104.973 49.5634 104.829 49.154 104.582 48.807C104.335 48.46 103.994 48.1897 103.6 48.027Z" stroke="white" stroke-width="2" mask="url(#path-2-inside-2_230_1854)"/>
</svg>